<svg xmlns="http://www.w3.org/2000/svg" width="400" height="400" preserveAspectRatio="xMidYMid meet" version="1.0" viewBox="0 0 300 300"><g fill="#000" stroke="none"><path d="m108 10-1 3c-17 5-31 11-30 11l10-2 17-3 5-1 2 8 2 8-3-5c-4-5-6-6-3 0l2 5-5-2c-5-3-7-2-2 1l4 2-7 1-20 5-29 6c-2 0-2 0 3-6 4-6 8-8 14-9l14-6c0-2-9 1-16 3l-11 3-7 8-6 8v-2l2-6c2-5 1-5-4 3-4 6-4 6-23 9-13 3-16 4-16 6l1 2 11-3c15-4 24-6 40-7 22-2 54 1 82 7 15 2 26 2 39 0a345 345 0 0 1 68-6c24 1 35 2 51 7l8 3v-3c0-2-1-2-6-3l-14-3-8-2-4-7c-4-8-4-8-2-8 2 1 2 1 0-2-5-4-20-11-38-18-20-8-21-8-25-2-3 5-5 5-2-1 3-5 2-6-1-1-3 4-13 24-12 25l2-2c3-4 4-3 2 1s-2 5 1 2 16-4 22-2l7 2 3 1-16 10c-6 2-12 1-15-1l-2-1 1 1c2 2 1 3-4 3l-17 4c-16 3-21 3-39-1-20-4-19-3-16-7V36l-2-10v-6h1l1 2c2 2 2 3 2 6-1 4 1 13 2 13 2-1 3-8 2-14 0-4 0-4 2-2l1 2v-2l-1-6c0-5-2-4-3 1 0 5-2 6-2 1 0-4-2-8-3-8v3h-2l-5-5-2-3v2zm126 11 22 10 10 19c-2 1-7-2-8-4-2-5-12-10-25-15-10-3-23-4-30-1s-7 2-2-5l11-14 22 10zM108 38l2 3 2 1c2 0 3 0 3 2 0 3-3 5-6 5l-10-2-10-2h-3c1 1-1 1-6 1l-7-1a596 596 0 0 1 35-7zm134 5 14 4 1 1h-3l-21-1h-17l12-8 14 4z"/><path d="m188 15-4 9 5-7 4-9-5 7zm-3-2c-3 4-8 13-7 14l6-8c6-9 6-11 1-6zm7 1c-4 6-9 20-6 17l8-19-3 2zM67 24c-4 1-7 3-7 4l14-6c3-2 0-2-7 2zM56 58c-18 1-40 7-50 12-4 2-6 3-6 5 0 3 1 4 2 2 2-2 19-10 20-9l-1 3c-2 4 0 3 3-1 3-5 4-4 1 2-3 4-3 7 0 3l9-11-2 3c-5 6-3 6 3 0 6-5 10-6 30-7 27-1 53 5 60 15 6 8 6 10 1 29-7 30-15 48-23 54s-14 7-33 8c-20 0-32-1-48-7-12-3-18-8-20-14l-2-4v4c0 2 1 4 6 9l5 6 16 4 16 4h22c20 0 23 0 29-2 10-3 15-8 21-21 7-13 11-24 14-41 4-16 4-22-1-30-2-6-3-7-10-10-12-5-17-6-39-6H55zm156 1c-10 1-19 3-26 7-7 2-10 7-13 16-1 6-1 6 1 21 5 25 14 49 23 57 4 5 11 9 19 10a220 220 0 0 0 58-3l17-4c4-2 9-7 9-9s-1-1-3 1c-7 7-29 13-52 14-26 1-40-3-49-14-6-8-19-48-21-64 0-6 0-7 2-12 4-7 9-10 24-14s43-4 63 0c7 1 10 4 13 11 3 6 5 6 4 1-1-7-1-7 2-7l10 4 6 4 1-3c0-2-1-2-6-5a208 208 0 0 0-82-11z"/><path d="m81 71-5 2h23c1 0 3 1 3 3l13 20c1 0-2-8-6-15l-3-6h3c3 0 3-2-2-4-6-3-18-3-26 0zm123-1c-2 1-3 1-2 2s0 4-4 9c-5 10-5 11-4 11l4-5c1-2 4-7 7-9l4-5h10l17 2c14 3 12 0-3-3-10-3-22-4-29-2z"/><path d="M76 85c-16 3-23 6-33 14-6 4-7 7-3 6 2-1 2 0 2 2 0 4 2 8 3 6 1-1 2 0 5 2 4 4 7 4 6 1-1-2-1-2 1-1 2 0 2 1-4-7l-3-5 8-5 7-4v6l4-4c3-3 4-4 8-5 7 0 10 1 12 4 2 5 1 8-2 13-4 5-4 5-2 5l2 1c0 2 1 1 7 0l9-2c3 0 5-2 3-6l-1-7 1-4 3 5c5 6 4 9-3 15-5 4-7 5-10 5-4 0-5 1-2 2 6 2 12 0 12-2l5-5 4-6-2-7-3-7-3-4c-3-2-4-3-2-3 2-1 0-3-6-4-7-1-12-1-23 1zm22 8 3 6c0 4-2 3-2-1 0-2-1-1-1 3 0 7 0 8-4 9-3 1-3 1-2-1l2-7c1-5 1-6-1-9l-2-3h2c1 0 4 1 5 3zm-46 19 2 5c-1 0-6-6-6-8s1-1 4 3z"/><path d="M148 85c-4 1-5 3-6 12a200 200 0 0 1-19 54c-4 7-10 14-14 17-5 3-16 6-28 7-9 1-34 0-46-2-9-2-29-7-32-9-3-1-4 0-1 2 4 4 11 6 28 9a212 212 0 0 0 70 0c5-1 15-8 19-14s8-14 18-38a185 185 0 0 0 11-33h10l3 9c2 8 16 47 21 57 4 6 6 8 13 14 5 4 7 5 14 6 14 3 26 4 40 3 33-2 51-6 51-10h-2l-27 6c-17 2-44 2-56 0-23-5-30-13-43-53l-8-26c0-8-4-12-10-12l-6 1z"/><path d="M201 88c2 1 2 1-4 5l-5 5c0 1 1 1 5-2l3-2c1 0-1 10-3 11-3 3-1 5 8 9 9 3 19 5 19 3l-2-1v-1c1-1 1-1-2-4-3-2-3-3-3-6 1-3 1-3-1-3-3 0-3 3 0 9 2 5 1 5-5 1-8-5-9-8-2-16 3-4 5-5 8-5 4 0 4 1 0 3-2 2-3 5 0 4l2-2c2-3 7-4 13-3 6 2 8 3 8 9 1 6-1 11-7 12l-4 2h5c5 0 5 0 8-4 2-3 3-4 2-9 0-6 0-6 2-5l4 1c2 2 5 9 4 10l-5 5c-6 2-7 5-5 7 2 1 2 1 3-1s9-7 10-7l-4 4c-6 4-3 4 4-1 6-4 7-5 5-11l-3-5-2-3-4-4c-4-3-6-4-9-4l-10-1-20-2c-14 0-14 0-13 2zM75 95c-2 2-3 7-1 9 3 4 10 0 10-5 0-2-3-6-5-6l-4 2zm6 3c0 3-2 5-5 4v-6c1-2 4-1 5 2z"/><path d="M226 99c-4 3-4 5-1 8s6 3 9 0c2-3 2-7-1-9-2-3-5-2-8 0zm6 1c1 3 0 5-2 5-3-1-4-3-2-5s3-2 4 0zm-45 3-2 4 7 7c11 12 13 13 19 13l4-3h-5l-4-1-6-4-7-8c-3-4-4-5-3-9v-4l-3 5zm-123-1c-1 1 0 3 2 6 2 4 3 6 5 6h3l-2-3-4-7c0-3-2-4-4-2zm-42 14c1 2 1 2-1 1l1 2 15 9c2 0-1-3-7-6l-6-4c1-1 16 7 20 10 5 5 7 5 4 1-3-5-16-12-24-14-3 0-3 0-2 1zm134-1 9 13-1-4-8-9zm-7 2c0 2 8 10 9 10l-9-11v1zm113 2c-5 3-16 13-14 13l9-6 10-7 1-2-6 2zm-108-1 8 11c0-1-5-9-8-11h-1zM9 119l10 6c0-1-4-5-7-6H9zm258 3c-6 3-8 5-6 5l15-8c0-2-3-1-9 3zm-122-2c0 2 4 7 6 7l-3-4-3-3zm136 3-11 5c-2 1-4 2-3 3l22-12-8 3zm-138 0 1 3c1 3 1 3 1 1 0-3-1-6-2-4zm144 2c-4 0-9 2-9 3h11l11-2-4-1h-9zm-70 3-1 1c0 1 4 1 5-1 1-1 1-1-1-1l-3 1zm-68 5c1 1 16 7 17 6 2-1-9-7-14-7l-3 1zm-8 5c-6 5-4 6 2 1l5-4c0-1-3 0-7 3zm7 3 2 1 6 1c2 1 2 1 1 3l-5 3c-3 1-4 3-1 3s8-3 9-6v-4c-2-2-12-3-12-1zm-15 9 1 6 1-5-1-6-1 5zm37 2c0 4 0 6 1 5l1-6-1-6-1 7zm-51 11-11 11c-4 2-3 4 1 1h3l-4 8c-2 0-1 3 1 6 2 5 8 12 10 12l1 2-1 1-3 3c-3 4-15 10-24 12h-8l1-1 3-2 3-2h-4c-5 0-11 2-16 6-4 3-5 2-2-1l2-2c0-2-3 1-11 7l-11 7c-4 1-4 3 0 3l2 1-1 1-6 5-11 8c-4 2-5 3-4 4h2c3-2 10-4 10-3 0 2-10 9-12 10-2 0-2 2 0 3v4c-1 3-1 5 1 3l1-3h4l-1-2c-2-1-1-4 7-12l8-9-4 2c-4 2-4 2-3 0 1-3 6-7 12-10l7-4h-5l-5 1 3-2 6-3 2-1 6-3c2-2 4-3 5-2l3-2c3-2 4-1 2 1-2 1 15 0 22-2 6-1 7-1 5 1l-1 5c0 3-1 5-6 8-3 2-5 3-3 1v-3l2-3v1l2-2 2-4c-3 0-14 9-16 12-3 5-2 2 1-4 2-7 3-7 1-6s-6 10-6 14v3l7-6 6-7-2 5-4 7c-3 3-2 3 5-2l8-4c2-1 3-1 2 4 0 5 1 5 3 0 1-4 6-10 5-6v3c1 1 1 1 1-2l1-12-2 5c-2 5-3 5-3 1l5-9 4-9 1-2 3-3c2-3 2-3-3-11l-5-9 4-9 4-9 4-6c4-4 5-6 3-6l-9 8zm-4 29 2 4-3-3c-3-3-4-6-2-5l3 4zm66-29 2 3 1 3 3 11 3 11c0 4-4 8-9 11-5 2-5 2-10 1l-5-2c-1 1 2 4 3 3l2 1c2 3 9 2 16-4 9-6 9-9 5-18l-1-5 2 2c0 2 1 3 2 3 2 0 2-1 0-5-4-8-14-19-14-15z"/><path d="M131 169c-3 3-7 9-7 13 0 3 2 3 2-1l3-5 2-2 1 4c0 3 1 5 3 6s2 2 1 5c0 5 1 5 2 1l2-3c2 0 3-5 2-10-2-11-5-13-11-8zm8 9v6l-2-3-3-6c0-7 4-4 5 3zm24-10-3 7c-2 6-2 10 1 9l2 4c0 4 2 6 2 3l2-3c6-1 7-5 4-12-2-5-1-5 3 1s5 9 4 11c-2 3 1 2 3-1 2-2 2-2 0-6-4-10-14-17-18-13zm5 9c0 6 0 7-2 7-2 1-4-1-4-4s4-10 5-10l1 7zm-28 24c-2 6-2 8-1 8l1-2c2-4 3 0 4 14 1 17 2 20 3 18 1-1 1-1 2 1 1 3 3 6 5 6v-2c-6-6-8-17-6-30 1-7 2-8 3-6 1 1 1 1 1-2l-1-3 2 3 1 3v-3c-1-5-3-8-5-7l-2 6-1 5-2-5c0-4-1-5-2-6l-2 2zm15 0c0 3 3 7 4 7l-5-9v2zm4 3 2 3 2-1c2 0 2 0-1-3-4-3-5-3-3 1zm21 6 4 7-3-8-1 1zm-24 11c1 9 2 12 2 4l-2-9v5zM0 222c0 4 0 5 1 4 2 0 2 1 2 4 0 6 2 7 2 1 0-3 1-3 1-2 1 2 0 7-2 12l1 2c2-1 7-15 7-16l-3 1c-1 2-1 2-3-1l-2-6-1-3H1c-1-1-1 1-1 4zm132-2-1 6c0 3-1 4-5 8l-5 6c-1 2-1 2 1 1l5-4c3-4 4-4 2 1l-4 5a426 426 0 0 0-13 7l5-1c0 4-24 7-33 5-8-1-10-1-12 1-4 4-3 5 5 5l10-1 17-3c12-1 18-1 28 1l4-1c0-1-10-4-15-4-2-1-2-1 4-4 5-4 8-6 8-9l-1 1c-2 2-3 1-1-5 2-3 2-7 2-11 0-5-1-6-1-4zm54-1 2 6 13 27-3-8-3-7-2-6c-2-3-3-5-2-7 1-3 1-5-2-4l-1-1-1-1-1 1z"/><path d="m138 223-3 7c-1 3-2 6-1 9v5l9-7c2-5 1-5-3 1l-4 4v-3l-1-3 2-4 3-7c0-4-1-5-2-2zm14 6c0 6 2 12 4 15l2 4c0 3 2 5 3 5l1-3c-1-2 0-2 1-1h4l4 3 4 3c2 0 1-1-1-3-4-3-10-12-10-15l5 6 7 9-4-7-8-13c-3-5-3-5-3-3l2 11 2 7-5-5c-5-5-5-5-6-12 0-8-2-9-2-1zm-85-2-5 3-1 2 10-7-4 2z"/><path d="m171 224 2 4 4 9 2 8c1 2 0 3-2 1l-2-1c-1 1 4 6 9 9 6 4 6 5 1 3-7-2-37-1-37 1l4 1c6-1 27 1 33 3 3 1 10 4 15 8 10 5 16 7 18 4 1-1 0-2-2-5-4-3-4-3-9-3-4 1-5 1-10-2-3-3-6-5-6-7l-2-4 8 5 7 3c0-2 1-2 5 1l5 2 3 1 3 2-1-3v-2l2 2 3 5 2 3 2 4 1 4-2-3-10-10 2 3c4 5 9 15 11 22 2 9 4 10 3 3 0-8-8-38-9-37v4c2 5 1 5-3 0-3-6-4-6-3-2v4l-2-3c-2-1-4-4-5-7l-2-4 2 7v3l-7-4c-7-3-9-4-6-1 3 4 0 2-7-3l-7-5 1 2v2l-6-14 4 5 8 7c5 3 7 3 5 0l-4-2c-2 0-7-5-14-15l-7-8zm29 3c0 3 5 10 6 10l-1-3c-2-3-2-3 5-2h6c1-1 2-1 4 1 5 2 5 1 0-2-6-4-9-5-10-3-1 1-2 1-5-1l-6-3 1 3zm-3 3c0 3 4 11 5 9l-2-6-3-3z"/><path d="M166 231c0 2 7 11 9 12h1c-2-4-10-13-10-12zm16 4c2 4 10 11 10 10l-6-8c-6-6-6-6-4-2zm-171-1-1 7-2 13c-3 7-3 10-3 17 1 9 5 23 8 26l-1-4c-6-14-7-28-3-39l3-7 2 8 3 8c1-1 4-10 4-14s-3 0-4 5v4l-2-5-1-9-1-4v-3l1-4c0-2-2-1-3 1zm106 1c-2 3-3 5-1 4s5-7 4-7l-3 3zm-49 2-8 6c-2 1-3 1-2 2 2 0 17-10 16-11l-6 3zm229-3 2 3c1 1 1 1 1-1 0-3-3-4-3-2zm-78 1 5 2c6 1 22 6 20 7l-5-1-4-1 3 4 6 11c2 5 2 6 2 3 0-4-2-10-5-12l-1-3 6 7 8 9 4 5 2 2-3-1-3-1 5 11 5 10-2-1c-2-1-2-1 0 3l2 4h-1c-1-1-1-1-1 2l1 4 1 1 1-3-1-3 2 3 1 2-1-5-1-4 3 1c5 0 6-1 3-4-2-3-3-6 0-11 2-3 2-6 2-10-1-6-1-5-2 4-1 6-3 6-3 0-1-5-3-8-4-5v2l4 17c0 2-3-1-5-7-3-6-3-6-1-5h2l-10-13c-7-9-10-14-9-14 3-1 1-3-4-5l-8-3c-5-2-14-3-14-2zm-145 6-2 3 5-5c0-2 0-1-3 1zm215 2-1 7v5l-2-4c-1-3-4-6-5-5l6 11c1 1 3-4 3-9v-4l2 2c1 2 2 2 2 1l-4-8-1 4zm-192 1h-5c-1-1-2-1-8 1l-8 3-3 2-3 1-3 3-3 5c-2 2-4 22-2 25l1 5v7l1 4 1-2 2-9 2-7c0-2-2 0-3 2s-1 0-1-5c0-10 3-22 6-25 2-3 14-6 20-6l9-1h9v-1l-2-1-3-1-2-1c0-1-1-1-5 1zm-33 1c-3 4-6 15-4 13l6-15-2 2zm72 1c0 2 5 8 6 8l-5-9-1 1zm64 0 6 5-3-4-3-1z"/><path d="m233 249 1 6-1 2c-2-2-1 1 1 3l2 2v-2l-2-9-1-6v4z"/><path d="m229 250 1 6h-1a169 169 0 0 1 5 12l-1-5-1-8-2-5h-1zm46 1v2l1 2v3-2l1 1 4 3 2 2-7-12-1 1zm19 2 6 8v-1c0-2-6-9-6-8zm-58 2c1 3 8 14 9 13l-7-12-2-1zm37 4 5 5-1-3c-2-3-4-4-4-2zm-253 3c-1 2 0 13 1 15v-14c-1-3-1-3-1-1zm216 2 5 15-4-16-1 1zm-73 4c0 1 6 7 8 7l8-6c0-2-1-2-5-2l-6 1 4 1c4 0 4 0 3 2-3 2-6 1-8-1-2-3-4-4-4-2zm115 2c-2 5-1 6 4 14l4 12c0 4 0 4 1 2 2-3 0-8-4-14-3-6-4-11-3-15v-2l-2 3zm-232 6-3 8 3-5 3-4v5l2 7v-14l-1-4-4 7zm-22-3c-1 1 0 3 1 3v-4l-1 1zm212-1-1 6c0 5 1 8 3 13l4 7-4-18-1-5-1-3zm-194 3-2 6c-1 4 1 1 3-3 1-5 1-7-1-3zm82 2c-6 1-8 3-7 4 0 1 4 2 17 2 16 1 17 1 25 4 9 4 10 4 9 1 0-2 0-3 2-3 2-1-9-5-16-7-6-2-26-2-30-1zm129 9c0 13 1 13 1 0l-1-10-1 10zm-7-2c-1 6 0 8 1 4 1-2 1-2 2 3v9c2 0 1-12-1-16l-2-4v4zm-122 5c-4 8-4 9 1 5l3-3-2 1c-2 2-2 1 0-3l1-4c-1-1-2 1-3 4zm-10 3-5 6 5 1h5l-2-2h-3l4-6c3-4 4-6 2-6l-6 7zm-90-1-5 9c2 0 9-11 8-12l-3 3zm126 3c0 6 1 8 2 4 2-2 1-7 0-9-2-1-2-1-2 5z"/><path d="M161 290c0 3 4 10 6 10 1 0 1-1-1-5-4-6-5-7-5-5zm120 1 1 6 1 3c2 0 1-3-1-7-1-3-2-4-2-2zm-139 5c0 4 0 6 2 2v-2l1 2c1 1 1 2 2 1l-4-8-1 5zm17-1c0 3 2 5 2 2l-1-4c-2-1-2-1-1 1zm-91 3c-2 2-2 2 0 2 2-1 5-5 3-5l-3 3zm157-2c0 2 3 4 4 4l-1-3c-2-2-3-2-3-1z"/></g></svg>